<svg xmlns="http://www.w3.org/2000/svg" style="display: none" >
  <symbol id="asset1" viewBox="0 0 197 188">
    <g>
      <path d="M196.8 91.61c-2.88-62.89-58.44-86-58.44-86s-20.64 58.79-19.11 95.55c2 48.23 37.11 86.67 37.11 86.67S199.37 147.41 196.8 91.61zm-43.33 53.11S135 121.61 131.92 88.94s6-68.22 6-68.22S168 47 170.8 78.05C174.36 116.94 153.47 144.72 153.47 144.72zM27.25 37.83C-6.3 84.46.58 129.83.58 129.83S51.25 123.61 81 94.05 133.47 3.83 133.47 3.83 66.58-16.84 27.25 37.83zm4.89 62.89s-2-31.33 26-59.78 65.55-25.55 65.55-25.55-3.55 15.77-30.22 46S32.14 100.72 32.14 100.72z"/>
      <circle cx="72" cy="58" r="8"/>
      <circle cx="149" cy="85" r="8"/>
      <path d="M56.36,68.05a8.23,8.23,0,1,0,8.22,8.23A8.22,8.22,0,0,0,56.36,68.05Zm0,12.67A2.67,2.67,0,1,1,59,78.05,2.67,2.67,0,0,1,56.36,80.72Z"/>
      <circle cx="150" cy="111" r="8"/>
    </g>
  </symbol>

  <symbol id="asset2" viewBox="0 0 51 100">
    <g>
      <path d="M23 70.67s1.56 11.11 2 14.66 2.89 14.23 2.89 14.23S19.61 96 14.29 94 0 89.56 0 89.56s8.75-6.45 12.75-9.78S23 70.67 23 70.67zM8.97 64.22L36.53 75.11 33.57 44 8.97 64.22zM20.3 37.33L47.64 48.22 51.19 0 20.3 37.33z"/>
    </g>
  </symbol>

  <symbol id="asset3" viewBox="0 0 76 73">
    <path d="M55.11,22.67C46.44,14.22,39.56,0,39.56,0s-6.67,14.67-16,22.67S0,37.11,0,37.11A66.91,66.91,0,0,1,22.67,50.44c10.89,9.78,15.77,22.89,15.77,22.89s7.12-13.77,14.67-20.89S75.78,38.89,75.78,38.89,63.78,31.11,55.11,22.67Zm-17.55,22a7.78,7.78,0,1,1,7.77-7.78A7.78,7.78,0,0,1,37.56,44.67Z" />
  </symbol>

  <symbol id="asset4" viewBox="0 0 137 60">
    <path d="M0 6.89L11.33 2.22 15.56 9.56 42.89 0 58.44 26.22 86.44 18.67 99.11 45.11 128.44 35.78 136.89 50.44 128.22 59.56 122.67 50.22 93.11 59.56 80.67 32.89 52 40.89 36.89 14.22 10 24 0 6.89z" />
  </symbol>

  <symbol id="asset5" viewBox="0 0 119 84">
    <g>
      <path d="M36.22,81.33,0,41.33S42.67,27.78,65.33,20,118.89,0,118.89,0l-4.45,51.78-32.22-36L76.44,65.11,44.22,28.67Z"/>
      <path d="M82.44 71.56L92.22 69.11 94.44 59.33 101.78 66.22 109.56 63.78 90 43.56 82.44 71.56zM63.56 78.67L56.22 71.33 53.56 81.11 44.89 84.44 52.44 56 71.78 75.11 63.56 78.67z"/>
    </g>
  </symbol>

  <symbol id="asset6" viewBox="0 0 172 147">
    <g>
      <path d="M57.6 60.1c-4-6.22-5.58-15.2-12.89-16.89-5.78-1.33-13.33 3.34-23.33 6s-16 2.22-20 6.89S2.27 70.77 13.6 89 36.27 116.1 41.16 116.1s10.22-10.67 16.22-17.78S69.82 85.21 70.27 80.1 61.6 66.32 57.6 60.1zM39.16 84.55a9.12 9.12 0 1 1 9.11-9.12A9.11 9.11 0 0 1 39.16 84.55zM119.55 106.32C118 102.1 106.44 99 100 96.32s-13.78-7.77-18-7.55-8.89 11.78-13.34 19.78S56.12 125 57.77 129.21c2 5.11 14 9.56 26 12.89s28.67 6.67 31.78 4 2.89-12.89 3.11-19.33S121.11 110.55 119.55 106.32zM83.77 118.55a5.78 5.78 0 1 1 5.78-5.78A5.77 5.77 0 0 1 83.77 118.55z"/>
      <path d="M169.6,3.66c-6.67-9-28,.66-39.33,7s-29.67,9.66-44.67,15C75.15,29.37,59.27,28,55.27,33S69.93,62.66,83.6,75.66s35.33,23,40,20,4.33-14,10.33-29.67,19.18-33.86,25.34-39.33C168.27,18.66,175.52,11.65,169.6,3.66ZM79.6,59s7.67-16,18.67-23.67,28.66-10.66,28.66-10.66-13.66,17-22.33,24S79.6,59,79.6,59Zm47,2c-7.67,9-22.33,20.33-22.33,20.33s5-18.33,11.33-28.66,20.33-21.34,20.33-21.34S134.27,52,126.6,61Z" fill="#fff"/>
    </g>
  </symbol>
  
  <symbol id="asset7" viewBox="0 0 42 41">
    <path d="M20.89,0A20.72,20.72,0,0,0,0,20.56,20.72,20.72,0,0,0,20.89,41.11,20.72,20.72,0,0,0,41.78,20.56,20.72,20.72,0,0,0,20.89,0Zm0,28.44a7.78,7.78,0,1,1,7.78-7.77A7.77,7.77,0,0,1,20.89,28.44Z"/>
  </symbol>

  <symbol id="asset8" viewBox="0 0 105 32">
    <g>
      <circle cx="54" cy="16" r="16"/>
      <circle cx="96" cy="19" r="10"/>
      <circle cx="10" cy="14" r="10"/>
    </g>
  </symbol>

  <symbol id="asset9" viewBox="0 0 65 41">
    <path d="M64.67 41.11L40 41.33 0 0 55.33 19.11 64.67 41.11z"/>
  </symbol>

  <symbol id="asset10" viewBox="0 0 91 53">
    <path d="M62,19.56C49.33,9.11,13.33,0,13.33,0L0,35.56S35.78,50.22,53.11,52.67,91.33,48,91.33,48,74.67,30,62,19.56ZM42.89,36a6,6,0,1,1,6-6A6,6,0,0,1,42.89,36Z" />
  </symbol>

  <symbol id="asset11" viewBox="0 0 133 136">
    <path d="M103.78,68.67l29.55-12-32.89-3.34,22-25.11L93.33,39.56,102.89,10,77.56,34.89,71.78,0,61.56,31.33,42.89,4.22,48,40.89,15.56,24.44,37.11,51.56,0,52.44,29.78,66.89,1.33,81.56H32L9.33,104.89,40.22,94.44,28,123.11,55.33,99.78l3.78,35.78,12.67-32.45,16.44,28.45L85.56,94.44l31.77,18.45L98,84l34.67,1.33ZM70,84A17.78,17.78,0,1,1,87.78,66.22,17.78,17.78,0,0,1,70,84Z" />
  </symbol>

  <symbol id="asset12" viewBox="0 0 89 78">
    <path d="M73.11,43.78c-2.44-9.78-2.22-26-2.22-26a176,176,0,0,1-28.89-2C25.56,13.33,0,0,0,0S18.22,24.22,22.89,40.67a83,83,0,0,1,2.89,22s11.11-2.45,26,1.77S88.67,77.78,88.67,77.78,75.56,53.56,73.11,43.78ZM37.56,47.33,25.11,20.67l29.11,9.11L70.89,62.22Z"/>
  </symbol>

  <symbol id="asset13" viewBox="0 0 76 27">
    <path d="M0,25.13S15.92,10.33,31.27,5s44.4-5,44.4-5-12,13.68-33.51,22.34S0,25.13,0,25.13Z"/>
  </symbol>
  
  <symbol id="asset14" viewBox="0 0 140 120">
    <g>
      <circle cx="41" cy="49" r="8"/>
      <circle cx="96" cy="72" r="8"/>
      <path d="M109.11 75.78l-.44 43.78L138.22 88l1.34-44.44zm14.22 12.44a5.56 5.56 0 1 1 5.56-5.55A5.56 5.56 0 0 1 123.33 88.22zM55.33 53.56l-.22 44.88L84 65.78l1.11-43.56zM69.11 65.33a5.56 5.56 0 1 1 5.56-5.55A5.54 5.54 0 0 1 69.11 65.33zM.67 31.56L0 75.78 29.33 44 31.11 0zM14.89 43.11a5.56 5.56 0 1 1 5.55-5.55A5.56 5.56 0 0 1 14.89 43.11z"/>
    </g>
  </symbol>

  <symbol id="asset15" viewBox="0 0 86 88">
    <g>
      <path d="M64.85,2.52c28,11,20,42,20,42s-13-4-31-11a212.14,212.14,0,0,1-31-15S37.71-8.14,64.85,2.52Z"/>
      <path d="M48.74 59.52c3.68-10.13 6-18 2-20s-9.48 5.19-13 14c-4 10-6 19-2 21S44.74 70.52 48.74 59.52zM32.07 53.74c3.68-10.12 6-18 2-20s-9.48 5.19-13 14c-4 10-6 19-2 21S28.07 64.74 32.07 53.74z"/>
      <path d="M15.18,47.79c3.68-10.12,6-18,2-20s-9.48,5.19-13,14c-4,10-6,19-2,21S11.18,58.79,15.18,47.79Z"/>
    </g>
  </symbol>

  <symbol id="asset16" viewBox="0 0 93 59">
    <g>
      <circle cx="50" cy="30" r="6"/>
      <path d="M68,18A122.14,122.14,0,0,1,53.33,0s-6,7.11-17.77,9.78S0,9.78,0,9.78s17.33,11.78,23.33,24,3.78,21.33,3.78,21.33,12.22-3.33,24.45-2.22,32.88,5.78,32.88,5.78l8.23-20.45S76,25.78,68,18ZM78.67,48s-14-4.89-18.89-5.33-18.22-.45-18.22-.45S39.33,34,38.22,31.33,32,23.11,32,23.11,39.11,22,42.89,21.33s9.78-5.11,9.78-5.11,4,6.67,8.22,10.22S81.78,42.22,81.78,42.22Z"/>
    </g>
  </symbol>

  <symbol id="asset17" viewBox="0 0 197 188">
    <g>
      <path d="M196.8 91.61c-2.88-62.89-58.44-86-58.44-86s-20.64 58.79-19.11 95.55c2 48.23 37.11 86.67 37.11 86.67S199.37 147.41 196.8 91.61zm-43.33 53.11S135 121.61 131.92 88.94s6-68.22 6-68.22S168 47 170.8 78.05C174.36 116.94 153.47 144.72 153.47 144.72zM27.25 37.83C-6.3 84.46.58 129.83.58 129.83S51.25 123.61 81 94.05 133.47 3.83 133.47 3.83 66.58-16.84 27.25 37.83zm4.89 62.89s-2-31.33 26-59.78 65.55-25.55 65.55-25.55-3.55 15.77-30.22 46S32.14 100.72 32.14 100.72z"/>
      <circle cx="72" cy="58" r="8"/>
      <circle cx="149" cy="85" r="8"/>
      <path d="M56.36,68.05a8.23,8.23,0,1,0,8.22,8.23A8.22,8.22,0,0,0,56.36,68.05Zm0,12.67A2.67,2.67,0,1,1,59,78.05,2.67,2.67,0,0,1,56.36,80.72Z"/>
      <circle cx="150" cy="111" r="8"/>
    </g>
  </symbol>
</svg>