<svg xmlns="http://www.w3.org/2000/svg" xmlns:xlink="http://www.w3.org/1999/xlink" viewBox="0 0 286 286"><defs><style>.cls-1{fill:url(#linear-gradient);}.cls-2{fill:url(#radial-gradient);}.cls-3,.cls-4,.cls-5{stroke:#3b5461;stroke-linejoin:round;}.cls-3{fill:url(#linear-gradient-2);}.cls-4{fill:url(#linear-gradient-3);}.cls-5{fill:url(#linear-gradient-4);}.cls-6{fill:url(#linear-gradient-5);}.cls-7{fill:url(#linear-gradient-6);}.cls-8{opacity:0.1;}.cls-9{fill:#fff;}.cls-10{opacity:0.15;}.cls-11{fill:none;stroke:#213d4a;stroke-miterlimit:10;}</style><linearGradient id="linear-gradient" x1="134.33" y1="7" x2="134.33" y2="281.02" gradientTransform="scale(1.06 1)" gradientUnits="userSpaceOnUse"><stop offset="0" stop-color="#1b323d"/><stop offset="0.51" stop-color="#213e4a"/><stop offset="0.78" stop-color="#1f3944"/><stop offset="1" stop-color="#1b303b"/></linearGradient><radialGradient id="radial-gradient" cx="143" cy="207.4" r="141.67" gradientTransform="translate(0 124.02) scale(1 0.4)" gradientUnits="userSpaceOnUse"><stop offset="0" stop-opacity="0.2"/><stop offset="0.89" stop-opacity="0.05"/><stop offset="1" stop-opacity="0"/></radialGradient><linearGradient id="linear-gradient-2" x1="72.7" y1="217.78" x2="96.78" y2="125.48" gradientUnits="userSpaceOnUse"><stop offset="0" stop-color="#1d3f4f"/><stop offset="0.44" stop-color="#1d3945"/><stop offset="1" stop-color="#1d3742"/></linearGradient><linearGradient id="linear-gradient-3" x1="198.11" y1="213.6" x2="170.24" y2="112.18" gradientUnits="userSpaceOnUse"><stop offset="0" stop-color="#1c3b4a"/><stop offset="0.35" stop-color="#21414f"/><stop offset="1" stop-color="#244452"/></linearGradient><linearGradient id="linear-gradient-4" x1="44.63" y1="92.73" x2="242.63" y2="92.73" gradientUnits="userSpaceOnUse"><stop offset="0" stop-color="#24424f"/><stop offset="0.44" stop-color="#244452"/><stop offset="0.8" stop-color="#254b5d"/><stop offset="1" stop-color="#255166"/></linearGradient><linearGradient id="linear-gradient-5" x1="91.86" y1="117.47" x2="197.86" y2="64.67" gradientUnits="userSpaceOnUse"><stop offset="0" stop-color="#1d3a46" stop-opacity="0.16"/><stop offset="0.22" stop-color="#1c3b48" stop-opacity="0.27"/><stop offset="0.59" stop-color="#1a3e4d" stop-opacity="0.58"/><stop offset="1" stop-color="#184254"/></linearGradient><linearGradient id="linear-gradient-6" x1="96.95" y1="121.6" x2="70.52" y2="215.96" gradientUnits="userSpaceOnUse"><stop offset="0" stop-color="#1d3641" stop-opacity="0"/><stop offset="0.28" stop-color="#1d3641" stop-opacity="0.04"/><stop offset="0.49" stop-color="#1b3743" stop-opacity="0.16"/><stop offset="0.68" stop-color="#193845" stop-opacity="0.37"/><stop offset="0.85" stop-color="#163949" stop-opacity="0.66"/><stop offset="1" stop-color="#123b4d"/></linearGradient></defs><title>default-featured_1</title><g id="Layer_2" data-name="Layer 2"><g id="Default_Feautered_Image" data-name="Default Feautered Image"><rect class="cls-1" width="286" height="286"/><ellipse id="Shadows" class="cls-2" cx="143" cy="207.4" rx="143" ry="56.38"/><polygon class="cls-3" points="125.96 239.99 44.63 212.32 44.63 98.99 125.96 126.66 125.96 239.99"/><polygon class="cls-4" points="242.63 199.99 125.96 239.99 125.96 126.66 242.63 86.66 242.63 199.99"/><polygon class="cls-5" points="125.96 126.66 44.63 98.99 162.4 58.81 242.63 86.66 125.96 126.66"/><polygon class="cls-6" points="92.85 115.17 74.61 109.41 191.82 69.55 209.31 75.63 92.85 115.17"/><polygon class="cls-7" points="92.78 228.14 74.81 222.06 74.81 108.97 92.78 115.1 92.78 228.14"/><g id="QR_Code" data-name="QR Code" class="cls-8"><path class="cls-9" d="M139.9,129.61l-6.77,2.2v6.78l6.77-2.21Zm-.67,6.32-5.42,1.76v-5.42l5.42-1.76Z"/><polygon class="cls-9" points="134.48 132.73 138.55 131.41 138.55 135.47 134.48 136.79 134.48 132.73"/><path class="cls-9" d="M133.13,152.81l6.77-2.2v-6.77l-6.77,2.2Zm.68-6.32,5.42-1.76v5.42l-5.42,1.76Z"/><polygon class="cls-9" points="134.48 146.95 138.55 145.63 138.55 149.7 134.48 151.02 134.48 146.95"/><path class="cls-9" d="M147.35,127.19V134l6.78-2.2V125Zm6.1,4.11L148,133.07v-5.42l5.42-1.76Z"/><polygon class="cls-9" points="148.71 128.1 152.77 126.78 152.77 130.85 148.71 132.17 148.71 128.1"/><polygon class="cls-9" points="146.68 146.04 146 146.26 146 148.29 154.13 145.65 154.13 144.97 146.68 147.39 146.68 146.04"/><polygon class="cls-9" points="143.29 145.44 141.6 146 141.6 143.62 140.92 143.84 140.92 146.89 142.61 146.34 142.61 148.04 140.92 148.59 140.92 149.26 142.61 148.71 142.61 149.39 144.98 148.62 144.98 147.94 143.29 148.49 143.29 145.44"/><polygon class="cls-9" points="143.29 136.3 139.23 137.62 139.23 138.3 143.97 136.76 143.97 134.05 144.98 133.72 144.98 132.02 141.94 133.01 141.94 130.64 143.29 130.2 143.29 131.22 146.34 130.23 146.34 127.52 145.66 127.74 145.66 129.77 143.97 130.32 143.97 128.29 141.26 129.17 141.26 133.91 143.29 133.25 143.29 134.27 141.26 134.93 141.26 135.61 143.29 134.94 143.29 136.3"/><polygon class="cls-9" points="134.82 141.42 138.21 140.32 138.21 141.68 136.18 142.34 136.18 143.01 138.21 142.35 138.21 143.37 141.94 142.16 141.94 141.48 138.89 142.47 138.89 139.42 137.19 139.97 137.19 138.62 136.52 138.84 136.52 140.19 135.5 140.53 135.5 138.83 133.13 139.6 133.13 140.28 134.82 139.73 134.82 141.42"/><polygon class="cls-9" points="146.68 143.33 146.68 144.68 145.32 145.12 145.32 141.4 144.65 141.62 144.65 140.26 143.63 140.59 143.63 137.88 140.24 138.98 140.24 141.02 140.92 140.8 140.92 139.44 142.95 138.78 142.95 142.85 144.65 142.29 144.65 146.02 149.05 144.59 149.05 145.61 150.74 145.06 150.74 142.01 149.05 142.56 149.05 143.91 147.35 144.46 147.35 143.11 146.68 143.33"/><polygon class="cls-9" points="153.45 137.06 148.71 138.6 148.71 140.64 147.35 141.08 147.35 139.04 146.68 139.26 146.68 141.97 149.39 141.09 149.39 139.06 151.08 138.51 151.08 140.2 151.76 139.98 151.76 138.29 153.45 137.74 153.45 141.13 151.76 141.68 151.76 144.39 154.13 143.62 154.13 142.94 152.44 143.49 152.44 142.13 154.13 141.59 154.13 135.49 153.45 135.71 153.45 137.06"/><polygon class="cls-9" points="148.37 136.68 146.34 137.34 146.34 134.63 145.66 134.85 145.66 138.24 151.08 136.48 151.08 135.8 149.05 136.46 149.05 135.11 151.08 134.45 151.08 133.77 147.35 134.98 147.35 135.66 148.37 135.33 148.37 136.68"/><polygon class="cls-9" points="133.13 143.33 135.16 142.67 135.16 144.7 133.13 145.36 133.13 143.33"/><polygon class="cls-9" points="152.1 133.44 154.13 132.78 154.13 134.81 152.1 135.47 152.1 133.44"/></g><g id="DefaultAvatar" class="cls-10"><path class="cls-9" d="M212.18,154s-3.63,4.94-5.29,6.31-7.18,5-7.18,5,2.17-4.88,4.49-7.35S212.18,154,212.18,154Z"/><path class="cls-9" d="M213.49,163.86a29.32,29.32,0,0,1-6.89,3.1,24.94,24.94,0,0,1-6.89.08,34,34,0,0,1,7.18-4.17C209.93,161.82,213.49,163.86,213.49,163.86Z"/><path class="cls-9" d="M208.05,148.69s-2.69,5.79-4.86,8.28-6.82,7.35-6.82,7.35,2.47-5.57,4.06-8.36S208.05,148.69,208.05,148.69Z"/><path class="cls-9" d="M201.38,146.57s-.58,6.65-2.47,9.55-6.74,9.28-6.74,9.28.79-6.58,2.68-9.84A97.67,97.67,0,0,1,201.38,146.57Z"/><path class="cls-9" d="M190.12,145.58s3.28,4.53,3.21,9.56-3.63,11.11-3.63,11.11a12.56,12.56,0,0,1-3.34-8.57C186.36,152.32,190.12,145.58,190.12,145.58Z"/><path class="cls-9" d="M184,159.26c1.89,2,2.69,7.93,2.69,8s-4.86-3-6.75-4.64-2.46-7.85-2.46-7.85S182.16,157.3,184,159.26Z"/><path class="cls-9" d="M178.46,163.51a52.62,52.62,0,0,1,4.06,5.56s-4.64-1.66-6.82-2.66-4.86-4.92-4.86-4.92S176.86,161.81,178.46,163.51Z"/><path class="cls-9" d="M174.69,168.14c2.32.87,4.49,4.26,4.49,4.26s-5.51.15-7.17-.07-5.3-2.67-5.3-2.67S172.37,167.27,174.69,168.14Z"/><path class="cls-9" d="M172,174.87a21.84,21.84,0,0,1,7.17-.78,44.86,44.86,0,0,1-6.88,4.67,23.58,23.58,0,0,1-6.89,1.64S169,175.92,172,174.87Z"/><path class="cls-9" d="M172.3,188a1.72,1.72,0,0,1-2.49-1.63,3.84,3.84,0,0,1,2.49-3.35,1.71,1.71,0,0,1,2.48,1.64A3.83,3.83,0,0,1,172.3,188Z"/><path class="cls-9" d="M206.6,176.22a1.72,1.72,0,0,1-2.49-1.63,3.84,3.84,0,0,1,2.49-3.35,1.72,1.72,0,0,1,2.49,1.63A3.84,3.84,0,0,1,206.6,176.22Z"/><path class="cls-9" d="M201.3,173.09l-.29-1.76a.67.67,0,0,0-1-.64l-.29.1a1.52,1.52,0,0,0-1,1.32l-.13,1.5a2.67,2.67,0,0,0,0,.4l.13,1.3a1.5,1.5,0,0,1-1,1.31l-.65.23a.8.8,0,0,1-1.16-.76v-6.4a1.79,1.79,0,0,1,1.16-1.56,1.78,1.78,0,0,0,1.16-1.55v-.06a.67.67,0,0,0-1-.64,66.2,66.2,0,0,0-7.74,2.22c-4.64,1.59-8.71,3.44-8.71,3.44a1.45,1.45,0,0,0-1,1.28v0a.67.67,0,0,0,1,.65l.83-.29a.68.68,0,0,1,1,.64v6.94a1.8,1.8,0,0,1-1.15,1.56l-.66.22c-.54.19-1.18-.07-1.29-.95a15.08,15.08,0,0,1,.32-3.07.67.67,0,0,0-1-.64l-.45.15a1.81,1.81,0,0,0-1.15,1.46l-.2,2.62a.61.61,0,0,0,0,.19l.21,2.46a.67.67,0,0,0,1,.56l8.74-2.57a.67.67,0,0,1,1,.64s.36,3.74-1.67,4.38l-5.48,1.5a1.9,1.9,0,0,0-1,1.58.67.67,0,0,0,1,.64,33.92,33.92,0,0,0,8.37-1.51,43,43,0,0,0,8.12-4.16,1.51,1.51,0,0,0,1-1.32v-.35a.67.67,0,0,0-1-.65,53.38,53.38,0,0,1-5.43,2.46c-1.81.59-1.6-3.25-1.6-3.25a1.5,1.5,0,0,1,1-1.31L200,178a1.5,1.5,0,0,0,1-1.31l.27-1.55A6.3,6.3,0,0,0,201.3,173.09ZM193.66,178a7.79,7.79,0,0,1-3.2,1.1c-.22-.1.39-1.29.28-2.79a33.1,33.1,0,0,0-.36-3.54c-.09-.15-.55.13-1.23.39s-1.36.59-1.48.89.54,5.63.24,5.93-2.85,1.32-3.26,1.13c-.21-.1.38-2.38.19-4.4a23.21,23.21,0,0,1-.19-4.38,9.81,9.81,0,0,1,2.63-.78,18.63,18.63,0,0,0,2.21-.76,34.22,34.22,0,0,1,4.17-1.56,16.78,16.78,0,0,1,0,4.45C193.46,175.84,193.83,177.76,193.66,178Z"/></g><polyline class="cls-11" points="83.8 225.1 83.8 112.31 199.71 72.29"/></g></g></svg>