<svg xmlns="http://www.w3.org/2000/svg" viewBox="0 0 143.11 143.11"><defs><style>.cls-1{fill:#82aab9;}.cls-2{fill:#fff;}</style></defs><title>Asset 25</title><g id="Layer_2" data-name="Layer 2"><g id="Logo"><g id="DefaultAvatar"><circle class="cls-1" cx="71.56" cy="71.56" r="71.56" transform="translate(-21.94 32.83) rotate(-22.5)"/><path class="cls-2" d="M124.39,53.44s-8.33,8.5-12.17,10.34-16.5,5.83-16.5,5.83,5-9.5,10.34-13.33S124.39,53.44,124.39,53.44Z"/><path class="cls-2" d="M127.39,77.11s-9.33,2.5-15.83,1.67-15.84-5.27-15.84-5.27,9.5-3.9,16.5-3.9S127.39,77.11,127.39,77.11Z"/><path class="cls-2" d="M114.89,37.94s-6.17,11.17-11.17,15.17-15.66,11.5-15.66,11.5,5.66-10.83,9.33-16S114.89,37.94,114.89,37.94Z"/><path class="cls-2" d="M99.56,27.78s-1.34,14.83-5.67,20-15.5,16-15.5,16c0-.17,1.83-14.5,6.17-20.5S99.56,27.78,99.56,27.78Z"/><path class="cls-2" d="M73.69,16.61s7.53,13,7.37,24.5-8.34,22.67-8.34,22.67-7.66-10-7.66-22.34S73.69,16.61,73.69,16.61Z"/><path class="cls-2" d="M59.72,43.24c4.34,6,6.17,20.34,6.17,20.5,0,0-11.17-10.83-15.5-16s-5.67-20-5.67-20S55.39,37.24,59.72,43.24Z"/><path class="cls-2" d="M46.89,48.58c3.67,5.16,9.33,16,9.33,16s-10.66-7.5-15.66-11.5S29.39,37.91,29.39,37.91,43.22,43.41,46.89,48.58Z"/><path class="cls-2" d="M38.22,56.24c5.34,3.84,10.34,13.34,10.34,13.34s-12.67-4-16.5-5.84S19.89,53.41,19.89,53.41,32.89,52.41,38.22,56.24Z"/><path class="cls-2" d="M32.06,69.58c7,0,16.5,3.89,16.5,3.89s-9.34,4.44-15.84,5.27-15.83-1.66-15.83-1.66S25.06,69.58,32.06,69.58Z"/><path class="cls-2" d="M32.72,100.06a5.72,5.72,0,1,1,5.72-5.72A5.72,5.72,0,0,1,32.72,100.06Z"/><path class="cls-2" d="M111.56,100.06a5.72,5.72,0,1,1,5.72-5.72A5.72,5.72,0,0,1,111.56,100.06Z"/><path class="cls-2" d="M99.39,88.69l-.67-4.29a2.25,2.25,0,0,0-2.25-2.25h-.68a2.25,2.25,0,0,0-2.25,2.25l-.29,3.35a4.82,4.82,0,0,0,0,.93l.29,3.08A2.24,2.24,0,0,1,91.3,94H89.8a2.66,2.66,0,0,1-2.66-2.66V76.63A2.66,2.66,0,0,1,89.8,74a2.66,2.66,0,0,0,2.65-2.66v-.14a2.24,2.24,0,0,0-2.24-2.24,138.55,138.55,0,0,0-17.78-1c-10.67,0-20,1-20,1a2.19,2.19,0,0,0-2.19,2.19v0a2.25,2.25,0,0,0,2.25,2.26h1.91a2.25,2.25,0,0,1,2.25,2.25V91.62A2.66,2.66,0,0,1,54,94.28h-1.5a3.33,3.33,0,0,1-3-3.22c-.26-2.11.73-6.8.73-6.8A2.24,2.24,0,0,0,48,82h-1a2.66,2.66,0,0,0-2.65,2.44l-.46,5.86a1.55,1.55,0,0,0,0,.43l.49,5.83a2.24,2.24,0,0,0,2.24,2.06l20.07,1a2.25,2.25,0,0,1,2.25,2.25s.84,8.89-3.82,8.75l-12.6-.89c-1.24,0-2.25,1.62-2.25,2.86a2.25,2.25,0,0,0,2.25,2.25S62.82,118,71.69,118s18.65-3.14,18.65-3.14a2.25,2.25,0,0,0,2.25-2.25v-.82a2.25,2.25,0,0,0-2.25-2.25S82,111,77.88,110.89s-3.69-8.73-3.69-8.73a2.25,2.25,0,0,1,2.25-2.25l20-1a2.24,2.24,0,0,0,2.25-2.24l.61-3.34A14.45,14.45,0,0,0,99.39,88.69ZM81.83,93.87c-.82.77-6.85.41-7.36,0s.89-2.66.64-6.2c-.24-3.36-.63-8-.83-8.42s-1.25-.14-2.83-.09-3.12.3-3.39.9,1.23,13.35.55,13.81-6.54.77-7.5,0c-.47-.38.89-5.16.45-10-.46-5-.74-9.92-.45-10.22.58-.57,6,.29,6,.29a36,36,0,0,0,5.09,0s8.86-.73,9.58-.29c.37.23.39,5.17,0,10.22C81.36,88.78,82.22,93.5,81.83,93.87Z"/></g></g></g></svg>