<svg width="123" height="35" viewBox="0 0 123 35" xmlns="http://www.w3.org/2000/svg">
<path d="M4.36 14H5.36L9.66 0.819999H8.74L6.3 8.52C5.8 10.12 5.44 11.34 4.9 12.94H4.82C4.28 11.34 3.94 10.12 3.44 8.52L1 0.819999H0.02L4.36 14ZM12.0675 14H12.9875V0.819999H12.0675V14ZM16.2755 14H25.0955V13.2H17.4355L25.0155 1.36V0.819999H16.9555V1.62H23.8755L16.2755 13.46V14ZM29.2805 7.18V1.6H31.8805C34.2205 1.6 35.5005 2.32 35.5005 4.3C35.5005 6.24 34.2205 7.18 31.8805 7.18H29.2805ZM36.7005 14L33.0805 7.88C35.1405 7.6 36.4605 6.4 36.4605 4.3C36.4605 1.78 34.7405 0.819999 32.1205 0.819999H28.3605V14H29.2805V7.94H32.0805L35.6405 14H36.7005ZM42.3645 14H43.2845V1.62H47.4645V0.819999H38.1645V1.62H42.3645V14ZM1.88 34H2.72V25.34C2.72 24.26 2.66 22.88 2.62 21.78H2.7L3.74 24.68L6.58 32.56H7.38L10.22 24.68L11.24 21.78H11.32C11.26 22.88 11.2 24.26 11.2 25.34V34H12.1V20.82H10.8L8.06 28.56L7.04 31.48H6.96L5.92 28.56L3.16 20.82H1.88V34ZM17.3244 28.7L18.1644 26.24C18.7044 24.68 19.1644 23.3 19.6244 21.68H19.7044C20.1644 23.3 20.6444 24.68 21.1644 26.24L22.0044 28.7H17.3244ZM23.8044 34H24.7844L20.1444 20.82H19.2244L14.5644 34H15.5044L17.0444 29.48H22.2644L23.8044 34ZM28.1555 27.18V21.6H30.7555C33.0955 21.6 34.3755 22.32 34.3755 24.3C34.3755 26.24 33.0955 27.18 30.7555 27.18H28.1555ZM35.5755 34L31.9555 27.88C34.0155 27.6 35.3355 26.4 35.3355 24.3C35.3355 21.78 33.6155 20.82 30.9955 20.82H27.2355V34H28.1555V27.94H30.9555L34.5155 34H35.5755ZM38.7902 34H39.7102V29.46L42.3902 26.4L46.7302 34H47.7902L43.0102 25.7L47.2102 20.82H46.1302L39.7502 28.14H39.7102V20.82H38.7902V34ZM50.3058 34H57.7058V33.2H51.2258V27.4H56.5058V26.6H51.2258V21.62H57.5058V20.82H50.3058V34ZM63.7825 34H64.7025V21.62H68.8825V20.82H59.5825V21.62H63.7825V34ZM71.7745 34H72.6945V28.34H75.3745C78.2945 28.34 80.0545 27.08 80.0545 24.5C80.0545 21.78 78.3145 20.82 75.3745 20.82H71.7745V34ZM72.6945 27.56V21.6H75.1345C77.8145 21.6 79.1145 22.28 79.1145 24.5C79.1145 26.66 77.8345 27.56 75.1345 27.56H72.6945ZM83.2902 34H90.2702V33.2H84.2102V20.82H83.2902V34ZM94.1056 28.7L94.9456 26.24C95.4856 24.68 95.9456 23.3 96.4056 21.68H96.4856C96.9456 23.3 97.4256 24.68 97.9456 26.24L98.7856 28.7H94.1056ZM100.586 34H101.566L96.9256 20.82H96.0056L91.3456 34H92.2856L93.8256 29.48H99.0456L100.586 34ZM102.961 27.38C102.961 31.58 105.241 34.24 108.481 34.24C110.201 34.24 111.401 33.52 112.401 32.36L111.861 31.78C110.901 32.86 109.881 33.4 108.521 33.4C105.701 33.4 103.921 31.04 103.921 27.38C103.921 23.72 105.721 21.42 108.601 21.42C109.801 21.42 110.761 21.96 111.481 22.76L112.021 22.16C111.321 21.34 110.141 20.58 108.601 20.58C105.241 20.58 102.961 23.2 102.961 27.38ZM115.454 34H122.854V33.2H116.374V27.4H121.654V26.6H116.374V21.62H122.654V20.82H115.454V34Z" fill="#ffffff"/>
</svg>
