<svg xmlns="http://www.w3.org/2000/svg" viewBox="0 0 26 52">
    <g id="Logo">
      <path fill="#e53015" d="M0 52L0 26.22 0 23 23.15 9.83 23.15 0 26 0 26 30 3.19 42.83 3.19 52 0 52z"/>
      <path fill="#fff" d="M3.42 35.89a6.39 6.39 0 0 0-1.21.21v-.45a4.67 4.67 0 0 1 1.25-.45 4.41 4.41 0 0 1 1.13 0c.23-1.18.5-3.38-.34-4-1.17-.92-4.25-.5-4.25-.5V29.47s2.92-.75 4.92 1 .41 4.75.41 4.75 3 .25 3.92 1.5a6 6 0 0 1 1.09 2.09l-1 .57c0-.06 0-1.67-1-2.24a14.48 14.48 0 0 0-3.39-1.06A11.69 11.69 0 0 0 3.42 35.89zM26 11.56l-3.81 1.58c.15.09 1 .63 1.16.73a3.64 3.64 0 0 1 .68.55l2-.87v1L24.66 15A16.46 16.46 0 0 1 26 16.74v1s-.16-.28-.45-.71-.5-.71-.83-1.13-.55-.64-.86-.95a8.5 8.5 0 0 0-.78-.7c-.2-.15-.42-.3-.65-.44s-.59-.34-.88-.49a20.16 20.16 0 0 0-2.66-1.1l.58-.33a7 7 0 0 1 2.11.83L26 10zM26 .44L26 1.85 23.15 2.79 23.15 2.26 26 .44zM26 3.41L26 4.74 23.15 6.08 23.15 5.53 26 3.41zM26 6.59L26 7.94 23.15 9.17 23.15 8.6 26 6.59z"/>
      <path fill="#fff" d="M14.66 14.66a21 21 0 0 1 6.11 3.68C23.53 20.82 26 27.18 26 27.18V30s-1.74-7.5-5.66-11.3a18.6 18.6 0 0 0-6.15-3.77zM5.17 40.3L0 43.23 0 42.36 5.09 40.06 5.17 40.3zM3.65 39.36L0 41.43 0 40.73 3.57 39.12 3.65 39.36zM1.98 38.47L0 39.59 0 39.09 1.9 38.23 1.98 38.47zM1.82 43.77L0 44.8 0 44.32 1.74 43.53 1.82 43.77zM1.82 45.32L0 46.35 0 45.86 1.74 45.08 1.82 45.32zM1.82 46.86L0 47.89 0 47.4 1.74 46.62 1.82 46.86zM1.82 48.4L0 49.43 0 48.95 1.74 48.16 1.82 48.4zM1.82 49.94L0 50.97 0 50.49 1.74 49.7 1.82 49.94zM1.63 33.48A1.07 1.07 0 0 1 .55 34.55 1 1 0 0 1 0 34.4V32.56a1.1 1.1 0 0 1 .55-.15A1.07 1.07 0 0 1 1.63 33.48zM2.58 28.06a3.48 3.48 0 0 1-1-2.06 10.21 10.21 0 0 1 1-3.67 6.79 6.79 0 0 1 1.07 2.86A4.8 4.8 0 0 1 2.58 28.06zM5.17 29.06a7 7 0 0 1 0-3.87 48.52 48.52 0 0 1 2.58-4.61 34.36 34.36 0 0 1-.42 5A14.32 14.32 0 0 1 5.17 29.06zM6.92 30.64a14.09 14.09 0 0 1 1.33-3.42c.83-1.33 4.53-3.83 4.53-3.83a32.25 32.25 0 0 1-2.44 4.67A8.87 8.87 0 0 1 6.92 30.64zM7.75 33.48A3.53 3.53 0 0 1 9 31.39a5.58 5.58 0 0 1 2.42-.75 5.5 5.5 0 0 1-1.08 2.17A5.84 5.84 0 0 1 7.75 33.48zM10.75 36.22a6.66 6.66 0 0 1 1.58-2.74c1.34-1.51 5.75-2.84 5.75-2.84a52.41 52.41 0 0 1-3.66 3.91A9.68 9.68 0 0 1 10.75 36.22z"/>
      <path fill="#fff" d="M11.78 16.29s2.53.87 3.7 1.43a20.78 20.78 0 0 1 2.75 1.72l-.12.22A15.11 15.11 0 0 0 15.4 18a32.34 32.34 0 0 0-3.91-1.5zM10.33 17.11s1.74.49 2.47.78A19.37 19.37 0 0 1 14.86 19l-.11.16a16.75 16.75 0 0 0-2-1.08c-.8-.31-2.62-.83-2.62-.83z"/>
      <path fill="#fff" d="M23,15.43A13.42,13.42,0,0,0,18,12.74l-2.51,1.43a29,29,0,0,1,5.93,3.43C23.83,19.46,26,24.47,26,24.47V19.56A11.33,11.33,0,0,0,23,15.43ZM18.69,15l-1.52-.85.91-.85,1.21.43Zm1.88,1.09-1.15-.72.72-1.13,1.23.71Zm1.6,1.18-1-.7.9-1.1,1.1.92Zm.68.72,1.09-.92.68.92-.92.86ZM25,20.9,24,19.62l1.06-.78.62,1Z"/>
    </g>
</svg>
