<svg xmlns="http://www.w3.org/2000/svg" viewBox="0 0 800 579.77"><defs><style>.cls-1,.cls-2,.cls-3,.cls-4,.cls-5,.cls-6{fill:#e53115;}.cls-1{opacity:0.75;}.cls-2{opacity:0.5;}.cls-4{opacity:0.8;}.cls-5{stroke:#000;stroke-miterlimit:10;}.cls-6{opacity:0.85;}</style></defs><title>pattern</title><g id="Layer_2" data-name="Layer 2"><g id="Layer_2-2" data-name="Layer 2"><path class="cls-1" d="M406.5,495.39c28,11,20,42,20,42s-13-4-31-11a212.14,212.14,0,0,1-31-15S379.36,484.73,406.5,495.39Z"/><path class="cls-2" d="M425.5,564.39c3.68-10.12,6-18,2-20s-9.48,5.19-13,14c-4,10-6,19-2,21S421.5,575.39,425.5,564.39Z"/><path class="cls-2" d="M406.61,558.83c3.68-10.12,6-18,2-20s-9.48,5.2-13,14c-4,10-6,19-2,21S402.61,569.83,406.61,558.83Z"/><path class="cls-2" d="M390.39,552.39c3.68-10.12,6-18,2-20s-9.48,5.19-13,14c-4,10-6,19-2,21S386.39,563.39,390.39,552.39Z"/><path class="cls-2" d="M373.72,546.61c3.68-10.12,6-18,2-20s-9.47,5.19-13,14c-4,10-6,19-2,21S369.72,557.61,373.72,546.61Z"/><path class="cls-2" d="M356.83,540.66c3.68-10.12,6-18,2-20s-9.47,5.19-13,14c-4,10-6,19-2,21S352.83,551.66,356.83,540.66Z"/><path class="cls-3" d="M419,461.56s1.56,11.11,2,14.66,2.89,14.22,2.89,14.22-8.25-3.55-13.57-5.55S396,480.44,396,480.44s8.75-6.44,12.75-9.77S419,461.56,419,461.56Z"/><polygon class="cls-1" points="405 455.11 432.56 466 429.6 434.89 405 455.11"/><polygon class="cls-1" points="416.33 428.22 443.67 439.11 447.22 390.89 416.33 428.22"/><polygon class="cls-2" points="341.65 470.89 357.22 476 364.5 459.56 347 454.22 341.65 470.89"/><path class="cls-3" d="M289.67,482.67s40,13.11,52-22.23-27.76-49.33-27.76-49.33-6.67,20.67-11.78,35.56S289.67,482.67,289.67,482.67Z"/><path class="cls-2" d="M287.44,465.11l-5.33,17.11s-28.22,8-48.44,8.22A186,186,0,0,1,193.89,486l5.78-14.44s27.33,6.19,48.11,3.3A220.71,220.71,0,0,0,287.44,465.11Z"/><path class="cls-2" d="M208.33,443.78l5.11-14.22A186,186,0,0,0,255,441.33c22.89,3.56,39.33,4.45,39.33,4.45l-4.66,15.78s-21.78-2.45-40.67-6.23S208.33,443.78,208.33,443.78Z"/><path class="cls-2" d="M227.44,390.89l-5.33,13.55S243,412,259,421.56s35.33,21.11,35.33,21.11L300.78,428S279,414.44,261.44,405.56A318.34,318.34,0,0,0,227.44,390.89Z"/><path class="cls-2" d="M240.67,353.78l-6.56,14.89s17.56,6,35.78,22.22a298,298,0,0,1,30.89,32l7.33-17.11s-20.67-22.67-37-34.22A195.1,195.1,0,0,0,240.67,353.78Z"/><polygon class="cls-2" points="139.89 465.11 60.56 442.67 63.22 432.67 142.78 454.22 139.89 465.11"/><path class="cls-2" d="M126.56,463.11c2.48,2.67-1.56,8.45-8.23,12.89s-13.55,8-18,4.44,4.89-10.66,10.45-13.55S123.44,459.78,126.56,463.11Z"/><path class="cls-2" d="M130.78,448.22c2.94-1.68,2-9.11-2.22-16.44s-8.67-13.34-13.12-11.34-.88,11.12,2.23,16.45S127.67,450,130.78,448.22Z"/><path class="cls-4" d="M547.22,454.89,552.78,442s17.78,7.33,28.44,1.78,16-14,11.11-26S573.44,398,573.44,398l5.78-12.22s21.56,11.33,28.22,26.22,7.34,33.78-11.55,44S547.22,454.89,547.22,454.89Z"/><path class="cls-3" d="M555.67,436l14.66-31.78s20.45,10.45,13.78,25.78S555.67,436,555.67,436Z"/><path class="cls-2" d="M683,428.67c-2.44-9.78-2.22-26-2.22-26a176,176,0,0,1-28.89-2c-16.45-2.45-42-15.78-42-15.78s18.22,24.22,22.89,40.67a83.44,83.44,0,0,1,2.89,22s11.11-2.45,26,1.77,36.89,13.34,36.89,13.34S685.44,438.44,683,428.67Zm-35.56,3.55L635,405.56l29.11,9.11,16.67,32.44Z"/><path class="cls-2" d="M548.33,370c-2.89-62.89-58.44-86-58.44-86s-20.64,58.79-19.11,95.56c2,48.22,37.11,86.66,37.11,86.66S550.9,425.81,548.33,370ZM505,423.11S486.56,400,483.44,367.33s6-68.22,6-68.22,30.05,26.29,32.89,57.33C525.89,395.33,505,423.11,505,423.11Z"/><path class="cls-2" d="M378.78,316.22c-33.55,46.63-26.67,92-26.67,92s50.67-6.22,80.45-35.78S485,282.22,485,282.22,418.11,261.56,378.78,316.22Zm4.89,62.89s-2-31.33,26-59.78,65.55-25.55,65.55-25.55-3.55,15.78-30.22,46S383.67,379.11,383.67,379.11Z"/><path class="cls-3" d="M101.22,360.44,65,320.44s42.67-13.55,65.33-21.33,53.56-20,53.56-20l-4.45,51.78-32.22-36-5.78,49.33-32.22-36.44Z"/><polygon class="cls-1" points="147.44 350.67 157.22 348.22 159.44 338.44 166.78 345.33 174.56 342.89 155 322.67 147.44 350.67"/><polygon class="cls-1" points="128.56 357.78 121.22 350.44 118.56 360.22 109.89 363.56 117.44 335.11 136.78 354.22 128.56 357.78"/><polygon class="cls-1" points="18.78 283.56 30.11 268.67 51.89 280.22 62.78 255.56 79 259.56 60.56 307.11 18.78 283.56"/><path class="cls-1" d="M103,249.78c0-.67,9.56-13.78,9.56-13.78l19.77,12.67,9.11-24.89L155.67,228l-13.11,48.44Z"/><polygon class="cls-1" points="610.11 485.33 621.45 480.67 625.67 488 653 478.44 668.56 504.67 696.56 497.11 709.22 523.56 738.56 514.22 747 528.89 738.33 538 732.78 528.67 703.22 538 690.78 511.33 662.11 519.33 647 492.67 620.11 502.44 610.11 485.33"/><path class="cls-2" d="M540.11,538.67c-12.67-10.45-48.67-19.56-48.67-19.56l-13.33,35.56s35.78,14.66,53.11,17.11,38.22-4.67,38.22-4.67S552.78,549.11,540.11,538.67ZM521,555.11a6,6,0,1,1,6-6A6,6,0,0,1,521,555.11Z"/><circle class="cls-1" cx="258.78" cy="526.44" r="16"/><circle class="cls-3" cx="300.56" cy="529.78" r="9.56"/><circle class="cls-3" cx="214.56" cy="524.22" r="9.56"/><circle class="cls-3" cx="179.22" cy="485.11" r="4.67"/><circle class="cls-3" cx="187.89" cy="460" r="4.67"/><circle class="cls-3" cx="195.89" cy="437.11" r="4.67"/><circle class="cls-3" cx="204.11" cy="413.78" r="4.67"/><circle class="cls-3" cx="211.44" cy="390.44" r="4.67"/><circle class="cls-3" cx="220.56" cy="365.78" r="4.67"/><circle class="cls-3" cx="227.89" cy="343.33" r="4.67"/><circle class="cls-1" cx="44.33" cy="431.78" r="12.89"/><circle class="cls-2" cx="17.67" cy="309.56" r="10.22"/><circle class="cls-2" cx="97.89" cy="276.89" r="10.22"/><circle class="cls-2" cx="178.33" cy="244.22" r="10.22"/><circle class="cls-1" cx="248.78" cy="292.22" r="8.22"/><circle class="cls-1" cx="303.89" cy="314.44" r="8.22"/><circle class="cls-5" cx="289" cy="278" r="2.44"/><circle class="cls-3" cx="423.89" cy="336.22" r="7.78"/><circle class="cls-3" cx="500.78" cy="363.56" r="7.78"/><path class="cls-2" d="M407.89,346.44a8.23,8.23,0,1,0,8.22,8.23A8.23,8.23,0,0,0,407.89,346.44Zm0,12.67a2.67,2.67,0,1,1,2.67-2.67A2.67,2.67,0,0,1,407.89,359.11Z"/><circle class="cls-2" cx="501.22" cy="388.89" r="8.22"/><circle class="cls-3" cx="570.33" cy="332.89" r="12.67"/><circle class="cls-1" cx="754.33" cy="316.67" r="11.33"/><circle class="cls-3" cx="766.78" cy="251.33" r="12.89"/><circle class="cls-2" cx="719.22" cy="304.89" r="7.11"/><circle class="cls-2" cx="654.56" cy="172.22" r="12.67"/><circle class="cls-1" cx="484.11" cy="157.11" r="8.44"/><circle class="cls-3" cx="485.22" cy="117.33" r="13.11"/><circle class="cls-1" cx="444.33" cy="140.67" r="9.33"/><circle class="cls-1" cx="404.11" cy="123.33" r="8.89"/><circle class="cls-3" cx="433.89" cy="95.11" r="12.67"/><circle class="cls-3" cx="563.44" cy="150.67" r="5.78"/><circle class="cls-2" cx="291.44" cy="114.67" r="17.33"/><circle class="cls-2" cx="254.78" cy="52.44" r="19.11"/><circle class="cls-3" cx="35.89" cy="115.33" r="5.33"/><circle class="cls-3" cx="109.89" cy="187.11" r="4.89"/><circle class="cls-3" cx="15.22" cy="229.11" r="5.56"/><circle class="cls-2" cx="745" cy="154.22" r="5.56"/><circle class="cls-3" cx="729.44" cy="115.56" r="7.11"/><circle class="cls-3" cx="734.78" cy="95.33" r="6.89"/><circle class="cls-3" cx="742.11" cy="76.44" r="6.22"/><circle class="cls-3" cx="750.56" cy="59.11" r="5.56"/><circle class="cls-3" cx="760.78" cy="45.56" r="6"/><circle class="cls-3" cx="771.89" cy="32.67" r="5.56"/><circle class="cls-3" cx="782.56" cy="21.78" r="4.44"/><circle class="cls-3" cx="792.11" cy="15.11" r="3.11"/><path class="cls-1" d="M157,372.89a20.56,20.56,0,1,0,20.89,20.55A20.72,20.72,0,0,0,157,372.89Zm0,28.44a7.78,7.78,0,1,1,7.78-7.77A7.77,7.77,0,0,1,157,401.33Z"/><circle class="cls-2" cx="516.11" cy="505.11" r="8"/><path class="cls-3" d="M529,518.89s6.44-13.78,11.78-18.67,20.89-12.89,20.89-12.89-2.89,13.78-10.23,19.78S529,518.89,529,518.89Z"/><path class="cls-3" d="M549.89,531.11s7.78-12.22,16.22-18.89,25.56-11.78,25.56-11.78-8.23,16-16.23,21.12S549.89,531.11,549.89,531.11Z"/><path class="cls-3" d="M571.22,546.89S581,534.44,592.11,528s28.22-8.44,28.22-8.44-7.33,12.66-20,19.77S571.22,546.89,571.22,546.89Z"/><path class="cls-3" d="M588.56,562.67s12.66-11.78,24.88-16,35.34-4,35.34-4a75.77,75.77,0,0,1-26.67,17.77C605,567.33,588.56,562.67,588.56,562.67Z"/><path class="cls-3" d="M659.67,299.56c-8.23-7.34-28.67-16.23-28.67-16.23s-5.78,9.34-10.44,16.45-12.67,14.66-12.67,14.66,5.33,30.23,17.11,44c5.11,6,20.67,14.67,30.22,10.23s18-20.89,19.34-36.89S667.89,306.89,659.67,299.56ZM641,343.78c-7.78,2.22-14.89-2.45-18.44-9.11s-4.67-13.11-.23-17.34c6.61-6.28,15.78,1.11,20,7.78S648.78,341.56,641,343.78Z"/><polygon class="cls-1" points="643.22 281.56 637.89 274 647.67 271.33 652.78 279.33 643.22 281.56"/><path class="cls-2" d="M667.44,294.89,673.22,280s10.67,2.22,17.78.44,21.12-7.08,30-16.66c11.11-12,9.56-25.34,9.56-25.34a45.72,45.72,0,0,1-2.45,33.78c-10,20-30.22,24-30.22,24s11.11,11.56,10,32.67-26.22,34.67-26.22,34.67,8-5.78,11.55-19.78,2.2-24.36-6.89-36.89C678.11,295.56,667.44,294.89,667.44,294.89Z"/><path class="cls-3" d="M715.67,222.44c-.45-10.44-14.89-19.11-33.11-17.55s-41.78,22.44-41.78,22.44a83.45,83.45,0,0,1,2,16.67c0,8.22-4.22,18.67-4.22,18.67L659,268.78c6.89,1.11,22.22,1.66,38-10.56S716.11,232.89,715.67,222.44Zm-27.78,6.89c-.89,6-3.77,10.5-15.33,12.23-10.45,1.55-16.45-3.56-17.34-7.56-1.66-7.49,9.34-14.67,16.89-15.11S688.78,223.33,687.89,229.33Z"/><path class="cls-1" d="M611.44,292.22s11.12-12,15.12-21.33S629.44,240,629.44,240s-23.55,8.67-26.88,22.67S611.44,292.22,611.44,292.22Z"/><polygon class="cls-1" points="699.89 191.78 690.33 169.33 714.11 169.56 754.56 209.56 699.89 191.78"/><polygon class="cls-2" points="600.11 252.89 595.22 265.11 460.11 211.33 465.22 199.56 600.11 252.89"/><path class="cls-1" d="M585.89,225.11c-3.28,8.91-8.22,14.45-12.22,13.56s-4-9.56-1.11-17.34,8.88-12.44,11.77-11.11S589,216.67,585.89,225.11Z"/><path class="cls-1" d="M567.89,271.11c-3.28,8.91-8.22,14.45-12.22,13.56s-4-9.56-1.11-17.34,8.88-12.44,11.77-11.11S571,262.67,567.89,271.11Z"/><path class="cls-1" d="M542.56,226.44c-3.45-1-3.34-8.22-.89-14.44s7.11-9.56,10-8.44,3.33,8.22,1.11,14S546.33,227.56,542.56,226.44Z"/><path class="cls-1" d="M526.78,266.89c-3.45-1-3.34-8.22-.89-14.45s7.11-9.55,10-8.44,3.33,8.22,1.11,14S530.56,268,526.78,266.89Z"/><path class="cls-1" d="M516.56,210.22c1.31-3.12,1.55-7.11.22-8s-5.11,1.78-5.78,4.22-1.56,6.67.22,7.56S514.78,214.44,516.56,210.22Z"/><path class="cls-1" d="M504.78,240.22c1.31-3.12,1.55-7.11.22-8s-5.11,1.78-5.78,4.22-1.55,6.67.22,7.56C501.36,245,503,244.44,504.78,240.22Z"/><path class="cls-2" d="M581.67,138.22a122.14,122.14,0,0,1-14.67-18s-6,7.11-17.78,9.78-35.55,0-35.55,0S531,141.78,537,154s3.78,21.33,3.78,21.33S553,172,565.22,173.11s32.89,5.78,32.89,5.78l8.22-20.45S589.67,146,581.67,138.22Zm10.66,30s-14-4.89-18.89-5.33-18.22-.45-18.22-.45-2.22-8.22-3.33-10.88-6.22-8.23-6.22-8.23,7.11-1.11,10.89-1.77,9.77-5.12,9.77-5.12,4,6.67,8.23,10.23,20.88,15.77,20.88,15.77Z"/><polygon class="cls-3" points="537.45 84.44 516.56 68.67 531.67 48.22 551.89 64.44 537.45 84.44"/><polygon class="cls-1" points="491.44 72.44 466.78 72.67 426.78 31.33 482.11 50.44 491.44 72.44"/><polygon class="cls-2" points="403.89 74.89 399.44 45.33 383.89 39.33 379.89 54.67 403.89 74.89"/><polygon class="cls-2" points="407.89 3.56 415 15.78 349.67 52.22 342.56 39.56 407.89 3.56"/><polygon class="cls-2" points="371.89 17.56 356.78 13.33 361 0 376.11 3.33 371.89 17.56"/><path class="cls-2" d="M300.33,38.44l6.89,12.23s8.67-5.78,13.56-3.56,12.44,9.56,11.33,15.78-10.44,13.55-10.44,13.55l7.11,12.45S346.11,78,347,64.22,335,32.89,322.11,32A33.2,33.2,0,0,0,300.33,38.44Z"/><polygon class="cls-6" points="288.33 51.78 300.33 28.44 275 27.56 288.33 51.78"/><polygon class="cls-6" points="306.11 83.56 318.11 60.22 292.78 59.33 306.11 83.56"/><polygon class="cls-6" points="324.33 115.78 336.33 92.44 311 91.56 324.33 115.78"/><polygon class="cls-3" points="247.44 191.33 259.67 167.56 234.56 167.11 247.44 191.33"/><polygon class="cls-3" points="215.67 134 227.89 110.22 202.78 109.78 215.67 134"/><polygon class="cls-3" points="184.11 76.67 196.33 52.89 171.22 52.44 184.11 76.67"/><polygon class="cls-2" points="160.33 35.78 165 44.44 218.11 34.22 188.11 85.78 197.67 102.89 254.11 96.89 220.11 142.44 228.78 159.11 285 156.67 251.22 199.11 255 207.56 320.78 138.22 227.22 150.89 288.33 77.56 195.22 93.11 251.22 13.33 160.33 35.78"/><path class="cls-4" d="M153.44,56.22,230.56,194s-42.23,1.11-68.45-51.33S153.44,56.22,153.44,56.22Z"/><polygon class="cls-3" points="38.11 82 47.45 68 68.11 80.67 76.56 56.44 91.67 61.11 78.11 109.56 38.11 82"/><polygon class="cls-6" points="31 52.44 46.78 46.67 40.78 30.67 24.56 36.67 31 52.44"/><polygon class="cls-6" points="70.56 38.67 86.33 32.89 80.33 16.89 64.11 22.89 70.56 38.67"/><polygon class="cls-6" points="105.22 26.44 121 20.67 115 4.67 98.78 10.67 105.22 26.44"/><polygon class="cls-1" points="116.11 40.89 134.11 52.67 139.67 40.22 116.11 40.89"/><polygon class="cls-1" points="115.22 65.11 132.56 57.78 130.33 69.11 115.22 65.11"/><polygon class="cls-1" points="116.11 83.11 130.33 75.11 129.67 87.78 116.11 83.11"/><polygon class="cls-1" points="115.44 101.33 130.33 92.89 132.56 105.56 115.44 101.33"/><polygon class="cls-1" points="118.11 122.44 133.89 110.89 136.78 123.11 118.11 122.44"/><polygon class="cls-1" points="124.11 142.44 139.22 128.44 145 142.67 124.11 142.44"/><polygon class="cls-1" points="135.67 159.56 147.44 147.11 154.78 159.11 135.67 159.56"/><polygon class="cls-1" points="148.11 176.89 157.67 162.67 165.89 172.89 148.11 176.89"/><polygon class="cls-1" points="161 194.67 169.67 177.11 179 186.67 161 194.67"/><polygon class="cls-1" points="175.44 206.89 183.22 190.44 193.22 198 175.44 206.89"/><polygon class="cls-1" points="192.11 218.44 197.67 201.11 207.67 206.89 192.11 218.44"/><polygon class="cls-1" points="207.89 228.22 211.67 208.67 221.89 213.11 207.89 228.22"/><polygon class="cls-1" points="225.44 214.22 225.89 234.67 238.33 218 225.44 214.22"/><path class="cls-3" d="M317.22,318.67l-.44,43.77,29.55-31.55,1.34-44.45Zm14.22,12.44a5.56,5.56,0,1,1,5.56-5.55A5.56,5.56,0,0,1,331.44,331.11Z"/><path class="cls-3" d="M263.44,296.44l-.22,44.89,28.89-32.66,1.11-43.56Zm13.78,11.78a5.56,5.56,0,1,1,5.56-5.55A5.55,5.55,0,0,1,277.22,308.22Z"/><path class="cls-3" d="M208.78,274.44l-.67,44.23,29.33-31.78,1.78-44ZM223,286a5.56,5.56,0,1,1,5.56-5.56A5.56,5.56,0,0,1,223,286Z"/><path class="cls-6" d="M404.33,209.33l29.56-12L401,194l22-25.11-29.11,11.33,9.55-29.55-25.33,24.89-5.78-34.89L362.11,172l-18.67-27.11,5.12,36.67-32.45-16.45,21.56,27.11-37.11.89,29.77,14.45-28.44,14.66h30.67l-22.67,23.34,30.89-10.45-12.22,28.67,27.33-23.34,3.78,35.78,12.66-32.44,16.45,28.44-2.67-37.11,31.78,18.45-19.33-28.89L433.22,226Zm-33.77,15.34a17.78,17.78,0,1,1,17.77-17.78A17.78,17.78,0,0,1,370.56,224.67Z"/><path class="cls-2" d="M645.67,60.67c-4-6.23-5.59-15.21-12.89-16.89-5.78-1.34-13.34,3.33-23.34,6s-16,2.22-20,6.89.89,14.66,12.23,32.89,22.66,27.11,27.55,27.11S639.44,106,645.44,98.89s12.45-13.11,12.89-18.22S649.67,66.89,645.67,60.67ZM627.22,85.11A9.11,9.11,0,1,1,636.33,76,9.11,9.11,0,0,1,627.22,85.11Z"/><path class="cls-2" d="M707.22,103.33c-1.55-4.22-13.11-7.33-19.55-10s-13.78-7.77-18-7.55-8.89,11.78-13.34,19.78S643.79,122,645.44,126.22c2,5.11,14,9.56,26,12.89s28.67,6.67,31.78,4,2.89-12.89,3.11-19.33S708.78,107.56,707.22,103.33Zm-35.78,12.23a5.78,5.78,0,1,1,5.78-5.78A5.77,5.77,0,0,1,671.44,115.56Z"/><path class="cls-3" d="M145.89,512.44c-8.67-8.44-15.56-22.66-15.56-22.66s-6.66,14.66-16,22.66-23.55,14.45-23.55,14.45a66.62,66.62,0,0,1,22.66,13.33c10.89,9.78,15.78,22.89,15.78,22.89s7.11-13.78,14.67-20.89,22.67-13.55,22.67-13.55S154.56,520.89,145.89,512.44Zm-17.56,22a7.78,7.78,0,1,1,7.78-7.77A7.77,7.77,0,0,1,128.33,534.44Z"/><path class="cls-2" d="M6.56,508.33S5,494.78,7,485.89s7.56-17.11,7.56-17.11A39.5,39.5,0,0,1,17.44,485C17.22,494.56,6.56,508.33,6.56,508.33Z"/><path class="cls-2" d="M27.22,489.11c.38-11.58,4.22-15.78,4.22-15.78S36.33,480,35.89,488s-6.22,19.78-6.22,19.78S26.78,502.89,27.22,489.11Z"/><path class="cls-2" d="M43.44,490.67c-1.78-7,.23-16,.23-16s6,4.66,7.11,10.44-.89,18-.89,18S46.11,501.11,43.44,490.67Z"/><path class="cls-2" d="M58.78,486.44a25.88,25.88,0,0,1-2.22-12.66,18.63,18.63,0,0,1,8,8.66c3.11,6.45,2,14.23,2,14.23A26.94,26.94,0,0,1,58.78,486.44Z"/><path class="cls-2" d="M75.22,402.44a46,46,0,0,1,9.11-8.22,56,56,0,0,1,11.56-4.89s-2.89,6.45-8,10S75.22,402.44,75.22,402.44Z"/><path class="cls-2" d="M64.56,395.11a106.41,106.41,0,0,1,7.77-11.78c3.34-4,11.78-9.77,11.78-9.77s-2,8.22-5.55,12.88S64.56,395.11,64.56,395.11Z"/><path class="cls-2" d="M52.33,390.44s.23-9.77,4.67-16.66a96.77,96.77,0,0,1,11.11-13.56s1.56,10.67-3.11,18.22S52.33,390.44,52.33,390.44Z"/><path class="cls-2" d="M35.89,386.44s-1.11-7.77,2.44-19.55a47.49,47.49,0,0,1,11.34-19.11s2.22,11.55-1.11,21.55S35.89,386.44,35.89,386.44Z"/><path class="cls-2" d="M16.11,386a109.81,109.81,0,0,1-.89-24.67c1.11-12.89,8.22-24,8.22-24S29,353.56,27,365.78,16.11,386,16.11,386Z"/><path class="cls-3" d="M45.22,411.33c28.45,3.78,41.11,23.11,41.11,23.11L94.11,432a101.3,101.3,0,0,0-12.67-17.89c-7.55-8.33-17-15.85-42.33-19.78A99.8,99.8,0,0,0,0,396.42v58.5c9.24,7.14,19.26,14.21,40.56,16.19,21.55,2,46.22-13.11,46.22-13.11l-4.89-5.11s-19.14,6-37.11,2c-28.89-6.45-36.22-31.11-36.22-31.11S19,407.85,45.22,411.33Z"/><path class="cls-2" d="M785.33,394.78s-9.54-11-14.33-23.56c-5-13.11-3.67-34-3.67-34s13.34,16.89,17.56,28S785.33,394.78,785.33,394.78Z"/><path class="cls-2" d="M769.89,403.33s-13.56-8.89-22.45-18.44S730.78,358,730.78,358s22.44,9.11,31.33,22.22S769.89,403.33,769.89,403.33Z"/><path class="cls-2" d="M763.22,410.44s-12,3.78-30.89.45-44.89-22.22-44.89-22.22,30.45-5.34,49.12,2.22S763.22,410.44,763.22,410.44Z"/><path class="cls-2" d="M765.44,421.33s-11.77-2.44-29.33,3.11-27.55,14.23-27.55,14.23,20.22,2.89,36.22-2.45S765.44,421.33,765.44,421.33Z"/><path class="cls-2" d="M771,433.11s-10.22,4.22-25.56,15.33-20.66,24.23-20.66,24.23,22.66-4.89,33.55-16.67S771,433.11,771,433.11Z"/><path class="cls-2" d="M782.78,448.33A119.59,119.59,0,0,0,763,467.67a65.44,65.44,0,0,0-12.67,26s14.89-6.45,24.23-18.45S782.78,448.33,782.78,448.33Z"/><path class="cls-2" d="M797.22,462.33S785.67,477.44,782.78,485s-3.34,21.11-3.34,21.11,10.45-8.89,14-16S797.22,462.33,797.22,462.33Z"/><path class="cls-2" d="M0,337v44.21c1.77,4.95,3.22,8.44,3.22,8.44A148.06,148.06,0,0,0,5.89,359C5.64,350.29,2.59,342.3,0,337Z"/><polygon class="cls-1" points="51 176 57.22 184.89 65.67 179.33 59.45 170.89 51 176"/><path class="cls-1" d="M757.67,4.22c-6.67-9-28,.67-39.34,7s-29.66,9.67-44.66,15c-10.46,3.72-26.34,2.34-30.34,7.34S658,63.22,671.67,76.22s35.33,23,40,20S716,82.22,722,66.56s19.18-33.87,25.33-39.34C756.33,19.22,763.59,12.21,757.67,4.22Zm-90,55.34s7.66-16,18.66-23.67S715,25.22,715,25.22s-13.67,17-22.33,24S667.67,59.56,667.67,59.56Zm47,2c-7.67,9-22.34,20.33-22.34,20.33s5-18.33,11.34-28.67S724,31.89,724,31.89,722.33,52.56,714.67,61.56Z"/><polygon class="cls-1" points="0 174.67 11.11 168 0 154.16 0 174.67"/><path class="cls-2" d="M52.33,130c-26.84-5.37-37.5-6.79-52.33-6.28v14.89l.67-.39,25,32L0,185.45v29.91a183.06,183.06,0,0,0,42,5.86s52.11,3.89,56.11-34.33S80.11,136.44,52.33,130ZM21.44,204.44a7.33,7.33,0,1,1,7.34-7.33A7.33,7.33,0,0,1,21.44,204.44ZM25,147.11a7.11,7.11,0,1,1,7.11,7.11A7.11,7.11,0,0,1,25,147.11Zm29.11,51.11L35.44,172.67l26.89-15.78,18.45,25.55Z"/><path class="cls-3" d="M800,396.42c-12.63,3.33-22.44,9.14-24.56,16.58-4.11,14.44,14.89,34.44,24.23,41.67l.33.25Z"/><path class="cls-2" d="M800,337a53.79,53.79,0,0,0-3.67-6.46s-4.22,17.55-2.22,29.77c1.1,6.71,3.73,14.88,5.89,20.9Z"/><polygon class="cls-1" points="800 154.16 798 151.67 780.33 161.33 792.22 179.33 800 174.67 800 154.16"/><path class="cls-2" d="M800,185.45l-10.67,6.33-23.66-33.11L800,138.61V123.72l-1.56.06c-15.66.66-30.66,1.22-40.11,21.11s-4.78,32.93,2.67,44.67c8.11,12.77,24.78,22.11,38,25.55l1,.25Z"/></g></g></svg>