<svg xmlns="http://www.w3.org/2000/svg" width="64" height="64" viewBox="0 0 64 64"><g class="nc-icon-wrapper" fill="#ffffff"><path data-color="color-2" d="M13.876,36.135L5.097,54.57c-0.155,0.328-0.122,0.714,0.089,1.009 c0.209,0.295,0.558,0.455,0.925,0.414l8.375-0.93l4.667,7.466C19.335,62.823,19.656,63,20,63c0.016,0,0.031,0,0.048-0.001 c0.361-0.017,0.685-0.229,0.847-0.552l8.782-17.564C23.272,44.238,17.64,40.95,13.876,36.135z"/> <path data-color="color-2" d="M50.124,36.135l8.779,18.436c0.155,0.328,0.122,0.714-0.089,1.009 c-0.209,0.295-0.558,0.455-0.925,0.414l-8.375-0.93l-4.667,7.466C44.665,62.823,44.344,63,44,63c-0.016,0-0.031,0-0.048-0.001 c-0.361-0.017-0.685-0.229-0.847-0.552l-8.782-17.564C40.728,44.238,46.36,40.95,50.124,36.135z"/> <path fill="#ffffff" d="M32,1c-11.579,0-21,9.42-21,21s9.421,21,21,21s21-9.42,21-21S43.579,1,32,1z M42.692,20.528L38.035,25 l1.043,6.372c0.062,0.376-0.096,0.754-0.405,0.975c-0.174,0.124-0.377,0.187-0.582,0.187c-0.162,0-0.324-0.039-0.472-0.119 l-5.692-3.048l-5.737,2.961c-0.337,0.175-0.747,0.142-1.053-0.084c-0.307-0.226-0.458-0.606-0.391-0.981l1.14-6.356l-4.589-4.542 c-0.271-0.268-0.366-0.666-0.245-1.027c0.12-0.361,0.435-0.623,0.812-0.674l6.396-0.879l2.901-5.769 c0.171-0.341,0.502-0.575,0.901-0.551c0.381,0.003,0.727,0.222,0.893,0.564l2.813,5.812l6.383,0.977 c0.376,0.057,0.688,0.324,0.802,0.687C43.068,19.868,42.967,20.265,42.692,20.528z"/></g></svg>