<svg width="26" height="26" viewBox="0 0 26 26" fill="none" xmlns="http://www.w3.org/2000/svg">
<path d="M7.75 0.5H18.25C22.25 0.5 25.5 3.75 25.5 7.75V18.25C25.5 22.25 22.25 25.5 18.25 25.5H7.75C3.75 25.5 0.5 22.25 0.5 18.25V7.75C0.5 3.75 3.75 0.5 7.75 0.5ZM7.5 3C5.0125 3 3 5.0125 3 7.5V18.5C3 20.9875 5.0125 23 7.5 23H18.5C20.9875 23 23 20.9875 23 18.5V7.5C23 5.0125 20.9875 3 18.5 3H7.5ZM19.5625 4.875C19.9769 4.875 20.3743 5.03962 20.6674 5.33265C20.9604 5.62567 21.125 6.0231 21.125 6.4375C21.125 6.8519 20.9604 7.24933 20.6674 7.54235C20.3743 7.83538 19.9769 8 19.5625 8C19.1481 8 18.7507 7.83538 18.4576 7.54235C18.1646 7.24933 18 6.8519 18 6.4375C18 6.0231 18.1646 5.62567 18.4576 5.33265C18.7507 5.03962 19.1481 4.875 19.5625 4.875ZM13 6.75C16.45 6.75 19.25 9.55 19.25 13C19.25 16.45 16.45 19.25 13 19.25C9.55 19.25 6.75 16.45 6.75 13C6.75 9.55 9.55 6.75 13 6.75ZM13 9.25C10.925 9.25 9.25 10.925 9.25 13C9.25 15.075 10.925 16.75 13 16.75C15.075 16.75 16.75 15.075 16.75 13C16.75 10.925 15.075 9.25 13 9.25Z" fill="white"/>
</svg>
